<?xml version="1.0" encoding="UTF-8" standalone="no"?>
<svg
   xmlns:dc="http://purl.org/dc/elements/1.1/"
   xmlns:cc="http://creativecommons.org/ns#"
   xmlns:rdf="http://www.w3.org/1999/02/22-rdf-syntax-ns#"
   xmlns:svg="http://www.w3.org/2000/svg"
   xmlns="http://www.w3.org/2000/svg"
   xmlns:xlink="http://www.w3.org/1999/xlink"
   xmlns:sodipodi="http://sodipodi.sourceforge.net/DTD/sodipodi-0.dtd"
   xmlns:inkscape="http://www.inkscape.org/namespaces/inkscape"
   width="210mm"
   height="148mm"
   viewBox="0 0 210 148"
   version="1.1"
   id="svg8"
   inkscape:version="1.0.1 (3bc2e813f5, 2020-09-07)"
   sodipodi:docname="grid_A5_10.svg">
  <defs
     id="defs2" />
  <sodipodi:namedview
     id="base"
     pagecolor="#ffffff"
     bordercolor="#666666"
     borderopacity="1.0"
     inkscape:pageopacity="0.0"
     inkscape:pageshadow="2"
     inkscape:zoom="0.7"
     inkscape:cx="527.86733"
     inkscape:cy="353.75798"
     inkscape:document-units="mm"
     inkscape:current-layer="layer1"
     inkscape:document-rotation="0"
     showgrid="false"
     inkscape:window-width="1920"
     inkscape:window-height="1017"
     inkscape:window-x="-8"
     inkscape:window-y="-8"
     inkscape:window-maximized="1" />
  <metadata
     id="metadata5">
    <rdf:RDF>
      <cc:Work
         rdf:about="">
        <dc:format>image/svg+xml</dc:format>
        <dc:type
           rdf:resource="http://purl.org/dc/dcmitype/StillImage" />
        <dc:title></dc:title>
      </cc:Work>
    </rdf:RDF>
  </metadata>
  <g
     inkscape:label="Layer 1"
     inkscape:groupmode="layer"
     id="layer1">
    <g
       id="g852"
       inkscape:tile-cx="16.425593"
       inkscape:tile-cy="16.80357"
       inkscape:tile-w="20"
       inkscape:tile-h="19.999999"
       inkscape:tile-x0="6.4255932"
       inkscape:tile-y0="6.8035706"
       transform="translate(-1.1339286,-2.2678571)">
      <rect
         style="fill:#000000;stroke:none;stroke-width:0"
         id="rect833"
         width="10"
         height="10"
         x="6.4255934"
         y="6.8035707" />
      <rect
         style="fill:#000000;stroke:none;stroke-width:0"
         id="rect833-5"
         width="10"
         height="10"
         x="16.425594"
         y="16.80357" />
    </g>
    <use
       x="0"
       y="0"
       inkscape:tiled-clone-of="#g852"
       xlink:href="#g852"
       id="use854"
       width="100%"
       height="100%" />
    <use
       x="0"
       y="0"
       inkscape:tiled-clone-of="#g852"
       xlink:href="#g852"
       transform="translate(2.7973132e-8,19.999999)"
       id="use856"
       width="100%"
       height="100%" />
    <use
       x="0"
       y="0"
       inkscape:tiled-clone-of="#g852"
       xlink:href="#g852"
       transform="translate(2.7973132e-8,39.999997)"
       id="use858"
       width="100%"
       height="100%" />
    <use
       x="0"
       y="0"
       inkscape:tiled-clone-of="#g852"
       xlink:href="#g852"
       transform="translate(2.7973132e-8,59.999996)"
       id="use860"
       width="100%"
       height="100%" />
    <use
       x="0"
       y="0"
       inkscape:tiled-clone-of="#g852"
       xlink:href="#g852"
       transform="translate(2.7973132e-8,79.999994)"
       id="use862"
       width="100%"
       height="100%" />
    <use
       x="0"
       y="0"
       inkscape:tiled-clone-of="#g852"
       xlink:href="#g852"
       transform="translate(2.7973132e-8,99.999993)"
       id="use864"
       width="100%"
       height="100%" />
    <use
       x="0"
       y="0"
       inkscape:tiled-clone-of="#g852"
       xlink:href="#g852"
       transform="translate(2.7973132e-8,119.99999)"
       id="use866"
       width="100%"
       height="100%" />
    <use
       x="0"
       y="0"
       inkscape:tiled-clone-of="#g852"
       xlink:href="#g852"
       transform="translate(20)"
       id="use914"
       width="100%"
       height="100%" />
    <use
       x="0"
       y="0"
       inkscape:tiled-clone-of="#g852"
       xlink:href="#g852"
       transform="translate(20,19.999999)"
       id="use916"
       width="100%"
       height="100%" />
    <use
       x="0"
       y="0"
       inkscape:tiled-clone-of="#g852"
       xlink:href="#g852"
       transform="translate(20,39.999997)"
       id="use918"
       width="100%"
       height="100%" />
    <use
       x="0"
       y="0"
       inkscape:tiled-clone-of="#g852"
       xlink:href="#g852"
       transform="translate(20,59.999996)"
       id="use920"
       width="100%"
       height="100%" />
    <use
       x="0"
       y="0"
       inkscape:tiled-clone-of="#g852"
       xlink:href="#g852"
       transform="translate(20,79.999994)"
       id="use922"
       width="100%"
       height="100%" />
    <use
       x="0"
       y="0"
       inkscape:tiled-clone-of="#g852"
       xlink:href="#g852"
       transform="translate(20,99.999993)"
       id="use924"
       width="100%"
       height="100%" />
    <use
       x="0"
       y="0"
       inkscape:tiled-clone-of="#g852"
       xlink:href="#g852"
       transform="translate(20,119.99999)"
       id="use926"
       width="100%"
       height="100%" />
    <use
       x="0"
       y="0"
       inkscape:tiled-clone-of="#g852"
       xlink:href="#g852"
       transform="translate(40.000001)"
       id="use974"
       width="100%"
       height="100%" />
    <use
       x="0"
       y="0"
       inkscape:tiled-clone-of="#g852"
       xlink:href="#g852"
       transform="translate(40.000001,19.999999)"
       id="use976"
       width="100%"
       height="100%" />
    <use
       x="0"
       y="0"
       inkscape:tiled-clone-of="#g852"
       xlink:href="#g852"
       transform="translate(40.000001,39.999997)"
       id="use978"
       width="100%"
       height="100%" />
    <use
       x="0"
       y="0"
       inkscape:tiled-clone-of="#g852"
       xlink:href="#g852"
       transform="translate(40.000001,59.999996)"
       id="use980"
       width="100%"
       height="100%" />
    <use
       x="0"
       y="0"
       inkscape:tiled-clone-of="#g852"
       xlink:href="#g852"
       transform="translate(40.000001,79.999994)"
       id="use982"
       width="100%"
       height="100%" />
    <use
       x="0"
       y="0"
       inkscape:tiled-clone-of="#g852"
       xlink:href="#g852"
       transform="translate(40.000001,99.999993)"
       id="use984"
       width="100%"
       height="100%" />
    <use
       x="0"
       y="0"
       inkscape:tiled-clone-of="#g852"
       xlink:href="#g852"
       transform="translate(40.000001,119.99999)"
       id="use986"
       width="100%"
       height="100%" />
    <use
       x="0"
       y="0"
       inkscape:tiled-clone-of="#g852"
       xlink:href="#g852"
       transform="translate(60.000001)"
       id="use1034"
       width="100%"
       height="100%" />
    <use
       x="0"
       y="0"
       inkscape:tiled-clone-of="#g852"
       xlink:href="#g852"
       transform="translate(60.000001,19.999999)"
       id="use1036"
       width="100%"
       height="100%" />
    <use
       x="0"
       y="0"
       inkscape:tiled-clone-of="#g852"
       xlink:href="#g852"
       transform="translate(60.000001,39.999997)"
       id="use1038"
       width="100%"
       height="100%" />
    <use
       x="0"
       y="0"
       inkscape:tiled-clone-of="#g852"
       xlink:href="#g852"
       transform="translate(60.000001,59.999996)"
       id="use1040"
       width="100%"
       height="100%" />
    <use
       x="0"
       y="0"
       inkscape:tiled-clone-of="#g852"
       xlink:href="#g852"
       transform="translate(60.000001,79.999994)"
       id="use1042"
       width="100%"
       height="100%" />
    <use
       x="0"
       y="0"
       inkscape:tiled-clone-of="#g852"
       xlink:href="#g852"
       transform="translate(60.000001,99.999993)"
       id="use1044"
       width="100%"
       height="100%" />
    <use
       x="0"
       y="0"
       inkscape:tiled-clone-of="#g852"
       xlink:href="#g852"
       transform="translate(60.000001,119.99999)"
       id="use1046"
       width="100%"
       height="100%" />
    <use
       x="0"
       y="0"
       inkscape:tiled-clone-of="#g852"
       xlink:href="#g852"
       transform="translate(80.000002)"
       id="use1094"
       width="100%"
       height="100%" />
    <use
       x="0"
       y="0"
       inkscape:tiled-clone-of="#g852"
       xlink:href="#g852"
       transform="translate(80.000002,19.999999)"
       id="use1096"
       width="100%"
       height="100%" />
    <use
       x="0"
       y="0"
       inkscape:tiled-clone-of="#g852"
       xlink:href="#g852"
       transform="translate(80.000002,39.999997)"
       id="use1098"
       width="100%"
       height="100%" />
    <use
       x="0"
       y="0"
       inkscape:tiled-clone-of="#g852"
       xlink:href="#g852"
       transform="translate(80.000002,59.999996)"
       id="use1100"
       width="100%"
       height="100%" />
    <use
       x="0"
       y="0"
       inkscape:tiled-clone-of="#g852"
       xlink:href="#g852"
       transform="translate(80.000002,79.999994)"
       id="use1102"
       width="100%"
       height="100%" />
    <use
       x="0"
       y="0"
       inkscape:tiled-clone-of="#g852"
       xlink:href="#g852"
       transform="translate(80.000002,99.999993)"
       id="use1104"
       width="100%"
       height="100%" />
    <use
       x="0"
       y="0"
       inkscape:tiled-clone-of="#g852"
       xlink:href="#g852"
       transform="translate(80.000002,119.99999)"
       id="use1106"
       width="100%"
       height="100%" />
    <use
       x="0"
       y="0"
       inkscape:tiled-clone-of="#g852"
       xlink:href="#g852"
       transform="translate(100)"
       id="use1154"
       width="100%"
       height="100%" />
    <use
       x="0"
       y="0"
       inkscape:tiled-clone-of="#g852"
       xlink:href="#g852"
       transform="translate(100,19.999999)"
       id="use1156"
       width="100%"
       height="100%" />
    <use
       x="0"
       y="0"
       inkscape:tiled-clone-of="#g852"
       xlink:href="#g852"
       transform="translate(100,39.999997)"
       id="use1158"
       width="100%"
       height="100%" />
    <use
       x="0"
       y="0"
       inkscape:tiled-clone-of="#g852"
       xlink:href="#g852"
       transform="translate(100,59.999996)"
       id="use1160"
       width="100%"
       height="100%" />
    <use
       x="0"
       y="0"
       inkscape:tiled-clone-of="#g852"
       xlink:href="#g852"
       transform="translate(100,79.999994)"
       id="use1162"
       width="100%"
       height="100%" />
    <use
       x="0"
       y="0"
       inkscape:tiled-clone-of="#g852"
       xlink:href="#g852"
       transform="translate(100,99.999993)"
       id="use1164"
       width="100%"
       height="100%" />
    <use
       x="0"
       y="0"
       inkscape:tiled-clone-of="#g852"
       xlink:href="#g852"
       transform="translate(100,119.99999)"
       id="use1166"
       width="100%"
       height="100%" />
    <use
       x="0"
       y="0"
       inkscape:tiled-clone-of="#g852"
       xlink:href="#g852"
       transform="translate(120)"
       id="use1214"
       width="100%"
       height="100%" />
    <use
       x="0"
       y="0"
       inkscape:tiled-clone-of="#g852"
       xlink:href="#g852"
       transform="translate(120,19.999999)"
       id="use1216"
       width="100%"
       height="100%" />
    <use
       x="0"
       y="0"
       inkscape:tiled-clone-of="#g852"
       xlink:href="#g852"
       transform="translate(120,39.999997)"
       id="use1218"
       width="100%"
       height="100%" />
    <use
       x="0"
       y="0"
       inkscape:tiled-clone-of="#g852"
       xlink:href="#g852"
       transform="translate(120,59.999996)"
       id="use1220"
       width="100%"
       height="100%" />
    <use
       x="0"
       y="0"
       inkscape:tiled-clone-of="#g852"
       xlink:href="#g852"
       transform="translate(120,79.999994)"
       id="use1222"
       width="100%"
       height="100%" />
    <use
       x="0"
       y="0"
       inkscape:tiled-clone-of="#g852"
       xlink:href="#g852"
       transform="translate(120,99.999993)"
       id="use1224"
       width="100%"
       height="100%" />
    <use
       x="0"
       y="0"
       inkscape:tiled-clone-of="#g852"
       xlink:href="#g852"
       transform="translate(120,119.99999)"
       id="use1226"
       width="100%"
       height="100%" />
    <use
       x="0"
       y="0"
       inkscape:tiled-clone-of="#g852"
       xlink:href="#g852"
       transform="translate(140)"
       id="use1274"
       width="100%"
       height="100%" />
    <use
       x="0"
       y="0"
       inkscape:tiled-clone-of="#g852"
       xlink:href="#g852"
       transform="translate(140,19.999999)"
       id="use1276"
       width="100%"
       height="100%" />
    <use
       x="0"
       y="0"
       inkscape:tiled-clone-of="#g852"
       xlink:href="#g852"
       transform="translate(140,39.999997)"
       id="use1278"
       width="100%"
       height="100%" />
    <use
       x="0"
       y="0"
       inkscape:tiled-clone-of="#g852"
       xlink:href="#g852"
       transform="translate(140,59.999996)"
       id="use1280"
       width="100%"
       height="100%" />
    <use
       x="0"
       y="0"
       inkscape:tiled-clone-of="#g852"
       xlink:href="#g852"
       transform="translate(140,79.999994)"
       id="use1282"
       width="100%"
       height="100%" />
    <use
       x="0"
       y="0"
       inkscape:tiled-clone-of="#g852"
       xlink:href="#g852"
       transform="translate(140,99.999993)"
       id="use1284"
       width="100%"
       height="100%" />
    <use
       x="0"
       y="0"
       inkscape:tiled-clone-of="#g852"
       xlink:href="#g852"
       transform="translate(140,119.99999)"
       id="use1286"
       width="100%"
       height="100%" />
    <use
       x="0"
       y="0"
       inkscape:tiled-clone-of="#g852"
       xlink:href="#g852"
       transform="translate(160)"
       id="use1334"
       width="100%"
       height="100%" />
    <use
       x="0"
       y="0"
       inkscape:tiled-clone-of="#g852"
       xlink:href="#g852"
       transform="translate(160,19.999999)"
       id="use1336"
       width="100%"
       height="100%" />
    <use
       x="0"
       y="0"
       inkscape:tiled-clone-of="#g852"
       xlink:href="#g852"
       transform="translate(160,39.999997)"
       id="use1338"
       width="100%"
       height="100%" />
    <use
       x="0"
       y="0"
       inkscape:tiled-clone-of="#g852"
       xlink:href="#g852"
       transform="translate(160,59.999996)"
       id="use1340"
       width="100%"
       height="100%" />
    <use
       x="0"
       y="0"
       inkscape:tiled-clone-of="#g852"
       xlink:href="#g852"
       transform="translate(160,79.999994)"
       id="use1342"
       width="100%"
       height="100%" />
    <use
       x="0"
       y="0"
       inkscape:tiled-clone-of="#g852"
       xlink:href="#g852"
       transform="translate(160,99.999993)"
       id="use1344"
       width="100%"
       height="100%" />
    <use
       x="0"
       y="0"
       inkscape:tiled-clone-of="#g852"
       xlink:href="#g852"
       transform="translate(160,119.99999)"
       id="use1346"
       width="100%"
       height="100%" />
    <use
       x="0"
       y="0"
       inkscape:tiled-clone-of="#g852"
       xlink:href="#g852"
       transform="translate(180)"
       id="use1394"
       width="100%"
       height="100%" />
    <use
       x="0"
       y="0"
       inkscape:tiled-clone-of="#g852"
       xlink:href="#g852"
       transform="translate(180,19.999999)"
       id="use1396"
       width="100%"
       height="100%" />
    <use
       x="0"
       y="0"
       inkscape:tiled-clone-of="#g852"
       xlink:href="#g852"
       transform="translate(180,39.999997)"
       id="use1398"
       width="100%"
       height="100%" />
    <use
       x="0"
       y="0"
       inkscape:tiled-clone-of="#g852"
       xlink:href="#g852"
       transform="translate(180,59.999996)"
       id="use1400"
       width="100%"
       height="100%" />
    <use
       x="0"
       y="0"
       inkscape:tiled-clone-of="#g852"
       xlink:href="#g852"
       transform="translate(180,79.999994)"
       id="use1402"
       width="100%"
       height="100%" />
    <use
       x="0"
       y="0"
       inkscape:tiled-clone-of="#g852"
       xlink:href="#g852"
       transform="translate(180,99.999993)"
       id="use1404"
       width="100%"
       height="100%" />
    <use
       x="0"
       y="0"
       inkscape:tiled-clone-of="#g852"
       xlink:href="#g852"
       transform="translate(180,119.99999)"
       id="use1406"
       width="100%"
       height="100%" />
  </g>
</svg>
