<?xml version="1.0" encoding="UTF-8" standalone="no"?>
<svg
   xmlns:dc="http://purl.org/dc/elements/1.1/"
   xmlns:cc="http://creativecommons.org/ns#"
   xmlns:rdf="http://www.w3.org/1999/02/22-rdf-syntax-ns#"
   xmlns:svg="http://www.w3.org/2000/svg"
   xmlns="http://www.w3.org/2000/svg"
   xmlns:xlink="http://www.w3.org/1999/xlink"
   xmlns:sodipodi="http://sodipodi.sourceforge.net/DTD/sodipodi-0.dtd"
   xmlns:inkscape="http://www.inkscape.org/namespaces/inkscape"
   width="297mm"
   height="210mm"
   viewBox="0 0 297 210"
   version="1.1"
   id="svg8"
   sodipodi:docname="grid_A4_10.svg"
   inkscape:version="1.0.1 (3bc2e813f5, 2020-09-07)">
  <defs
     id="defs2" />
  <sodipodi:namedview
     id="base"
     pagecolor="#ffffff"
     bordercolor="#666666"
     borderopacity="1.0"
     inkscape:pageopacity="0.0"
     inkscape:pageshadow="2"
     inkscape:zoom="0.70710678"
     inkscape:cx="730.42974"
     inkscape:cy="421.51335"
     inkscape:document-units="mm"
     inkscape:current-layer="layer1"
     inkscape:document-rotation="0"
     showgrid="false"
     inkscape:window-width="1920"
     inkscape:window-height="1017"
     inkscape:window-x="-8"
     inkscape:window-y="-8"
     inkscape:window-maximized="1" />
  <metadata
     id="metadata5">
    <rdf:RDF>
      <cc:Work
         rdf:about="">
        <dc:format>image/svg+xml</dc:format>
        <dc:type
           rdf:resource="http://purl.org/dc/dcmitype/StillImage" />
        <dc:title></dc:title>
      </cc:Work>
    </rdf:RDF>
  </metadata>
  <g
     inkscape:label="Layer 1"
     inkscape:groupmode="layer"
     id="layer1">
    <g
       id="g2842"
       transform="translate(-43.648461,-25.720993)"
       inkscape:tile-cx="23.47485"
       inkscape:tile-cy="20.583334"
       inkscape:tile-w="20.000001"
       inkscape:tile-h="19.999999"
       inkscape:tile-x0="13.47485"
       inkscape:tile-y0="10.583335">
      <rect
         style="fill:#000000;fill-opacity:1;stroke:none;stroke-width:0;stroke-miterlimit:4;stroke-dasharray:none"
         id="rect833"
         width="10"
         height="10"
         x="52.633183"
         y="30.691668" />
      <rect
         style="fill:#000000;fill-opacity:1;stroke:none;stroke-width:0;stroke-miterlimit:4;stroke-dasharray:none"
         id="rect833-9"
         width="10"
         height="10"
         x="62.633183"
         y="40.691666" />
    </g>
    <use
       x="0"
       y="0"
       inkscape:tiled-clone-of="#g2842"
       xlink:href="#g2842"
       id="use12267"
       width="100%"
       height="100%" />
    <use
       x="0"
       y="0"
       inkscape:tiled-clone-of="#g2842"
       xlink:href="#g2842"
       transform="translate(1.0781273e-7,19.999999)"
       id="use12269"
       width="100%"
       height="100%" />
    <use
       x="0"
       y="0"
       inkscape:tiled-clone-of="#g2842"
       xlink:href="#g2842"
       transform="translate(1.0781273e-7,39.999997)"
       id="use12271"
       width="100%"
       height="100%" />
    <use
       x="0"
       y="0"
       inkscape:tiled-clone-of="#g2842"
       xlink:href="#g2842"
       transform="translate(1.0781273e-7,59.999996)"
       id="use12273"
       width="100%"
       height="100%" />
    <use
       x="0"
       y="0"
       inkscape:tiled-clone-of="#g2842"
       xlink:href="#g2842"
       transform="translate(1.0781273e-7,79.999995)"
       id="use12275"
       width="100%"
       height="100%" />
    <use
       x="0"
       y="0"
       inkscape:tiled-clone-of="#g2842"
       xlink:href="#g2842"
       transform="translate(1.0781273e-7,99.999993)"
       id="use12277"
       width="100%"
       height="100%" />
    <use
       x="0"
       y="0"
       inkscape:tiled-clone-of="#g2842"
       xlink:href="#g2842"
       transform="translate(1.0781273e-7,119.99999)"
       id="use12279"
       width="100%"
       height="100%" />
    <use
       x="0"
       y="0"
       inkscape:tiled-clone-of="#g2842"
       xlink:href="#g2842"
       transform="translate(1.0781273e-7,139.99999)"
       id="use12281"
       width="100%"
       height="100%" />
    <use
       x="0"
       y="0"
       inkscape:tiled-clone-of="#g2842"
       xlink:href="#g2842"
       transform="translate(1.0781273e-7,159.99999)"
       id="use12283"
       width="100%"
       height="100%" />
    <use
       x="0"
       y="0"
       inkscape:tiled-clone-of="#g2842"
       xlink:href="#g2842"
       transform="translate(1.0781273e-7,179.99999)"
       id="use12285"
       width="100%"
       height="100%" />
    <use
       x="0"
       y="0"
       inkscape:tiled-clone-of="#g2842"
       xlink:href="#g2842"
       transform="translate(20.000001)"
       id="use12289"
       width="100%"
       height="100%" />
    <use
       x="0"
       y="0"
       inkscape:tiled-clone-of="#g2842"
       xlink:href="#g2842"
       transform="translate(20.000001,19.999999)"
       id="use12291"
       width="100%"
       height="100%" />
    <use
       x="0"
       y="0"
       inkscape:tiled-clone-of="#g2842"
       xlink:href="#g2842"
       transform="translate(20.000001,39.999997)"
       id="use12293"
       width="100%"
       height="100%" />
    <use
       x="0"
       y="0"
       inkscape:tiled-clone-of="#g2842"
       xlink:href="#g2842"
       transform="translate(20.000001,59.999996)"
       id="use12295"
       width="100%"
       height="100%" />
    <use
       x="0"
       y="0"
       inkscape:tiled-clone-of="#g2842"
       xlink:href="#g2842"
       transform="translate(20.000001,79.999995)"
       id="use12297"
       width="100%"
       height="100%" />
    <use
       x="0"
       y="0"
       inkscape:tiled-clone-of="#g2842"
       xlink:href="#g2842"
       transform="translate(20.000001,99.999993)"
       id="use12299"
       width="100%"
       height="100%" />
    <use
       x="0"
       y="0"
       inkscape:tiled-clone-of="#g2842"
       xlink:href="#g2842"
       transform="translate(20.000001,119.99999)"
       id="use12301"
       width="100%"
       height="100%" />
    <use
       x="0"
       y="0"
       inkscape:tiled-clone-of="#g2842"
       xlink:href="#g2842"
       transform="translate(20.000001,139.99999)"
       id="use12303"
       width="100%"
       height="100%" />
    <use
       x="0"
       y="0"
       inkscape:tiled-clone-of="#g2842"
       xlink:href="#g2842"
       transform="translate(20.000001,159.99999)"
       id="use12305"
       width="100%"
       height="100%" />
    <use
       x="0"
       y="0"
       inkscape:tiled-clone-of="#g2842"
       xlink:href="#g2842"
       transform="translate(20.000001,179.99999)"
       id="use12307"
       width="100%"
       height="100%" />
    <use
       x="0"
       y="0"
       inkscape:tiled-clone-of="#g2842"
       xlink:href="#g2842"
       transform="translate(40.000001)"
       id="use12311"
       width="100%"
       height="100%" />
    <use
       x="0"
       y="0"
       inkscape:tiled-clone-of="#g2842"
       xlink:href="#g2842"
       transform="translate(40.000001,19.999999)"
       id="use12313"
       width="100%"
       height="100%" />
    <use
       x="0"
       y="0"
       inkscape:tiled-clone-of="#g2842"
       xlink:href="#g2842"
       transform="translate(40.000001,39.999997)"
       id="use12315"
       width="100%"
       height="100%" />
    <use
       x="0"
       y="0"
       inkscape:tiled-clone-of="#g2842"
       xlink:href="#g2842"
       transform="translate(40.000001,59.999996)"
       id="use12317"
       width="100%"
       height="100%" />
    <use
       x="0"
       y="0"
       inkscape:tiled-clone-of="#g2842"
       xlink:href="#g2842"
       transform="translate(40.000001,79.999995)"
       id="use12319"
       width="100%"
       height="100%" />
    <use
       x="0"
       y="0"
       inkscape:tiled-clone-of="#g2842"
       xlink:href="#g2842"
       transform="translate(40.000001,99.999993)"
       id="use12321"
       width="100%"
       height="100%" />
    <use
       x="0"
       y="0"
       inkscape:tiled-clone-of="#g2842"
       xlink:href="#g2842"
       transform="translate(40.000001,119.99999)"
       id="use12323"
       width="100%"
       height="100%" />
    <use
       x="0"
       y="0"
       inkscape:tiled-clone-of="#g2842"
       xlink:href="#g2842"
       transform="translate(40.000001,139.99999)"
       id="use12325"
       width="100%"
       height="100%" />
    <use
       x="0"
       y="0"
       inkscape:tiled-clone-of="#g2842"
       xlink:href="#g2842"
       transform="translate(40.000001,159.99999)"
       id="use12327"
       width="100%"
       height="100%" />
    <use
       x="0"
       y="0"
       inkscape:tiled-clone-of="#g2842"
       xlink:href="#g2842"
       transform="translate(40.000001,179.99999)"
       id="use12329"
       width="100%"
       height="100%" />
    <use
       x="0"
       y="0"
       inkscape:tiled-clone-of="#g2842"
       xlink:href="#g2842"
       transform="translate(60.000002)"
       id="use12333"
       width="100%"
       height="100%" />
    <use
       x="0"
       y="0"
       inkscape:tiled-clone-of="#g2842"
       xlink:href="#g2842"
       transform="translate(60.000002,19.999999)"
       id="use12335"
       width="100%"
       height="100%" />
    <use
       x="0"
       y="0"
       inkscape:tiled-clone-of="#g2842"
       xlink:href="#g2842"
       transform="translate(60.000002,39.999997)"
       id="use12337"
       width="100%"
       height="100%" />
    <use
       x="0"
       y="0"
       inkscape:tiled-clone-of="#g2842"
       xlink:href="#g2842"
       transform="translate(60.000002,59.999996)"
       id="use12339"
       width="100%"
       height="100%" />
    <use
       x="0"
       y="0"
       inkscape:tiled-clone-of="#g2842"
       xlink:href="#g2842"
       transform="translate(60.000002,79.999995)"
       id="use12341"
       width="100%"
       height="100%" />
    <use
       x="0"
       y="0"
       inkscape:tiled-clone-of="#g2842"
       xlink:href="#g2842"
       transform="translate(60.000002,99.999993)"
       id="use12343"
       width="100%"
       height="100%" />
    <use
       x="0"
       y="0"
       inkscape:tiled-clone-of="#g2842"
       xlink:href="#g2842"
       transform="translate(60.000002,119.99999)"
       id="use12345"
       width="100%"
       height="100%" />
    <use
       x="0"
       y="0"
       inkscape:tiled-clone-of="#g2842"
       xlink:href="#g2842"
       transform="translate(60.000002,139.99999)"
       id="use12347"
       width="100%"
       height="100%" />
    <use
       x="0"
       y="0"
       inkscape:tiled-clone-of="#g2842"
       xlink:href="#g2842"
       transform="translate(60.000002,159.99999)"
       id="use12349"
       width="100%"
       height="100%" />
    <use
       x="0"
       y="0"
       inkscape:tiled-clone-of="#g2842"
       xlink:href="#g2842"
       transform="translate(60.000002,179.99999)"
       id="use12351"
       width="100%"
       height="100%" />
    <use
       x="0"
       y="0"
       inkscape:tiled-clone-of="#g2842"
       xlink:href="#g2842"
       transform="translate(80.000002)"
       id="use12355"
       width="100%"
       height="100%" />
    <use
       x="0"
       y="0"
       inkscape:tiled-clone-of="#g2842"
       xlink:href="#g2842"
       transform="translate(80.000002,19.999999)"
       id="use12357"
       width="100%"
       height="100%" />
    <use
       x="0"
       y="0"
       inkscape:tiled-clone-of="#g2842"
       xlink:href="#g2842"
       transform="translate(80.000002,39.999997)"
       id="use12359"
       width="100%"
       height="100%" />
    <use
       x="0"
       y="0"
       inkscape:tiled-clone-of="#g2842"
       xlink:href="#g2842"
       transform="translate(80.000002,59.999996)"
       id="use12361"
       width="100%"
       height="100%" />
    <use
       x="0"
       y="0"
       inkscape:tiled-clone-of="#g2842"
       xlink:href="#g2842"
       transform="translate(80.000002,79.999995)"
       id="use12363"
       width="100%"
       height="100%" />
    <use
       x="0"
       y="0"
       inkscape:tiled-clone-of="#g2842"
       xlink:href="#g2842"
       transform="translate(80.000002,99.999993)"
       id="use12365"
       width="100%"
       height="100%" />
    <use
       x="0"
       y="0"
       inkscape:tiled-clone-of="#g2842"
       xlink:href="#g2842"
       transform="translate(80.000002,119.99999)"
       id="use12367"
       width="100%"
       height="100%" />
    <use
       x="0"
       y="0"
       inkscape:tiled-clone-of="#g2842"
       xlink:href="#g2842"
       transform="translate(80.000002,139.99999)"
       id="use12369"
       width="100%"
       height="100%" />
    <use
       x="0"
       y="0"
       inkscape:tiled-clone-of="#g2842"
       xlink:href="#g2842"
       transform="translate(80.000002,159.99999)"
       id="use12371"
       width="100%"
       height="100%" />
    <use
       x="0"
       y="0"
       inkscape:tiled-clone-of="#g2842"
       xlink:href="#g2842"
       transform="translate(80.000002,179.99999)"
       id="use12373"
       width="100%"
       height="100%" />
    <use
       x="0"
       y="0"
       inkscape:tiled-clone-of="#g2842"
       xlink:href="#g2842"
       transform="translate(99.999998)"
       id="use12377"
       width="100%"
       height="100%" />
    <use
       x="0"
       y="0"
       inkscape:tiled-clone-of="#g2842"
       xlink:href="#g2842"
       transform="translate(99.999998,19.999999)"
       id="use12379"
       width="100%"
       height="100%" />
    <use
       x="0"
       y="0"
       inkscape:tiled-clone-of="#g2842"
       xlink:href="#g2842"
       transform="translate(99.999998,39.999997)"
       id="use12381"
       width="100%"
       height="100%" />
    <use
       x="0"
       y="0"
       inkscape:tiled-clone-of="#g2842"
       xlink:href="#g2842"
       transform="translate(99.999998,59.999996)"
       id="use12383"
       width="100%"
       height="100%" />
    <use
       x="0"
       y="0"
       inkscape:tiled-clone-of="#g2842"
       xlink:href="#g2842"
       transform="translate(99.999998,79.999995)"
       id="use12385"
       width="100%"
       height="100%" />
    <use
       x="0"
       y="0"
       inkscape:tiled-clone-of="#g2842"
       xlink:href="#g2842"
       transform="translate(99.999998,99.999993)"
       id="use12387"
       width="100%"
       height="100%" />
    <use
       x="0"
       y="0"
       inkscape:tiled-clone-of="#g2842"
       xlink:href="#g2842"
       transform="translate(99.999998,119.99999)"
       id="use12389"
       width="100%"
       height="100%" />
    <use
       x="0"
       y="0"
       inkscape:tiled-clone-of="#g2842"
       xlink:href="#g2842"
       transform="translate(99.999998,139.99999)"
       id="use12391"
       width="100%"
       height="100%" />
    <use
       x="0"
       y="0"
       inkscape:tiled-clone-of="#g2842"
       xlink:href="#g2842"
       transform="translate(99.999998,159.99999)"
       id="use12393"
       width="100%"
       height="100%" />
    <use
       x="0"
       y="0"
       inkscape:tiled-clone-of="#g2842"
       xlink:href="#g2842"
       transform="translate(99.999998,179.99999)"
       id="use12395"
       width="100%"
       height="100%" />
    <use
       x="0"
       y="0"
       inkscape:tiled-clone-of="#g2842"
       xlink:href="#g2842"
       transform="translate(120)"
       id="use12399"
       width="100%"
       height="100%" />
    <use
       x="0"
       y="0"
       inkscape:tiled-clone-of="#g2842"
       xlink:href="#g2842"
       transform="translate(120,19.999999)"
       id="use12401"
       width="100%"
       height="100%" />
    <use
       x="0"
       y="0"
       inkscape:tiled-clone-of="#g2842"
       xlink:href="#g2842"
       transform="translate(120,39.999997)"
       id="use12403"
       width="100%"
       height="100%" />
    <use
       x="0"
       y="0"
       inkscape:tiled-clone-of="#g2842"
       xlink:href="#g2842"
       transform="translate(120,59.999996)"
       id="use12405"
       width="100%"
       height="100%" />
    <use
       x="0"
       y="0"
       inkscape:tiled-clone-of="#g2842"
       xlink:href="#g2842"
       transform="translate(120,79.999995)"
       id="use12407"
       width="100%"
       height="100%" />
    <use
       x="0"
       y="0"
       inkscape:tiled-clone-of="#g2842"
       xlink:href="#g2842"
       transform="translate(120,99.999993)"
       id="use12409"
       width="100%"
       height="100%" />
    <use
       x="0"
       y="0"
       inkscape:tiled-clone-of="#g2842"
       xlink:href="#g2842"
       transform="translate(120,119.99999)"
       id="use12411"
       width="100%"
       height="100%" />
    <use
       x="0"
       y="0"
       inkscape:tiled-clone-of="#g2842"
       xlink:href="#g2842"
       transform="translate(120,139.99999)"
       id="use12413"
       width="100%"
       height="100%" />
    <use
       x="0"
       y="0"
       inkscape:tiled-clone-of="#g2842"
       xlink:href="#g2842"
       transform="translate(120,159.99999)"
       id="use12415"
       width="100%"
       height="100%" />
    <use
       x="0"
       y="0"
       inkscape:tiled-clone-of="#g2842"
       xlink:href="#g2842"
       transform="translate(120,179.99999)"
       id="use12417"
       width="100%"
       height="100%" />
    <use
       x="0"
       y="0"
       inkscape:tiled-clone-of="#g2842"
       xlink:href="#g2842"
       transform="translate(140)"
       id="use12421"
       width="100%"
       height="100%" />
    <use
       x="0"
       y="0"
       inkscape:tiled-clone-of="#g2842"
       xlink:href="#g2842"
       transform="translate(140,19.999999)"
       id="use12423"
       width="100%"
       height="100%" />
    <use
       x="0"
       y="0"
       inkscape:tiled-clone-of="#g2842"
       xlink:href="#g2842"
       transform="translate(140,39.999997)"
       id="use12425"
       width="100%"
       height="100%" />
    <use
       x="0"
       y="0"
       inkscape:tiled-clone-of="#g2842"
       xlink:href="#g2842"
       transform="translate(140,59.999996)"
       id="use12427"
       width="100%"
       height="100%" />
    <use
       x="0"
       y="0"
       inkscape:tiled-clone-of="#g2842"
       xlink:href="#g2842"
       transform="translate(140,79.999995)"
       id="use12429"
       width="100%"
       height="100%" />
    <use
       x="0"
       y="0"
       inkscape:tiled-clone-of="#g2842"
       xlink:href="#g2842"
       transform="translate(140,99.999993)"
       id="use12431"
       width="100%"
       height="100%" />
    <use
       x="0"
       y="0"
       inkscape:tiled-clone-of="#g2842"
       xlink:href="#g2842"
       transform="translate(140,119.99999)"
       id="use12433"
       width="100%"
       height="100%" />
    <use
       x="0"
       y="0"
       inkscape:tiled-clone-of="#g2842"
       xlink:href="#g2842"
       transform="translate(140,139.99999)"
       id="use12435"
       width="100%"
       height="100%" />
    <use
       x="0"
       y="0"
       inkscape:tiled-clone-of="#g2842"
       xlink:href="#g2842"
       transform="translate(140,159.99999)"
       id="use12437"
       width="100%"
       height="100%" />
    <use
       x="0"
       y="0"
       inkscape:tiled-clone-of="#g2842"
       xlink:href="#g2842"
       transform="translate(140,179.99999)"
       id="use12439"
       width="100%"
       height="100%" />
    <use
       x="0"
       y="0"
       inkscape:tiled-clone-of="#g2842"
       xlink:href="#g2842"
       transform="translate(160)"
       id="use12443"
       width="100%"
       height="100%" />
    <use
       x="0"
       y="0"
       inkscape:tiled-clone-of="#g2842"
       xlink:href="#g2842"
       transform="translate(160,19.999999)"
       id="use12445"
       width="100%"
       height="100%" />
    <use
       x="0"
       y="0"
       inkscape:tiled-clone-of="#g2842"
       xlink:href="#g2842"
       transform="translate(160,39.999997)"
       id="use12447"
       width="100%"
       height="100%" />
    <use
       x="0"
       y="0"
       inkscape:tiled-clone-of="#g2842"
       xlink:href="#g2842"
       transform="translate(160,59.999996)"
       id="use12449"
       width="100%"
       height="100%" />
    <use
       x="0"
       y="0"
       inkscape:tiled-clone-of="#g2842"
       xlink:href="#g2842"
       transform="translate(160,79.999995)"
       id="use12451"
       width="100%"
       height="100%" />
    <use
       x="0"
       y="0"
       inkscape:tiled-clone-of="#g2842"
       xlink:href="#g2842"
       transform="translate(160,99.999993)"
       id="use12453"
       width="100%"
       height="100%" />
    <use
       x="0"
       y="0"
       inkscape:tiled-clone-of="#g2842"
       xlink:href="#g2842"
       transform="translate(160,119.99999)"
       id="use12455"
       width="100%"
       height="100%" />
    <use
       x="0"
       y="0"
       inkscape:tiled-clone-of="#g2842"
       xlink:href="#g2842"
       transform="translate(160,139.99999)"
       id="use12457"
       width="100%"
       height="100%" />
    <use
       x="0"
       y="0"
       inkscape:tiled-clone-of="#g2842"
       xlink:href="#g2842"
       transform="translate(160,159.99999)"
       id="use12459"
       width="100%"
       height="100%" />
    <use
       x="0"
       y="0"
       inkscape:tiled-clone-of="#g2842"
       xlink:href="#g2842"
       transform="translate(160,179.99999)"
       id="use12461"
       width="100%"
       height="100%" />
    <use
       x="0"
       y="0"
       inkscape:tiled-clone-of="#g2842"
       xlink:href="#g2842"
       transform="translate(180.00001)"
       id="use12465"
       width="100%"
       height="100%" />
    <use
       x="0"
       y="0"
       inkscape:tiled-clone-of="#g2842"
       xlink:href="#g2842"
       transform="translate(180.00001,19.999999)"
       id="use12467"
       width="100%"
       height="100%" />
    <use
       x="0"
       y="0"
       inkscape:tiled-clone-of="#g2842"
       xlink:href="#g2842"
       transform="translate(180.00001,39.999997)"
       id="use12469"
       width="100%"
       height="100%" />
    <use
       x="0"
       y="0"
       inkscape:tiled-clone-of="#g2842"
       xlink:href="#g2842"
       transform="translate(180.00001,59.999996)"
       id="use12471"
       width="100%"
       height="100%" />
    <use
       x="0"
       y="0"
       inkscape:tiled-clone-of="#g2842"
       xlink:href="#g2842"
       transform="translate(180.00001,79.999995)"
       id="use12473"
       width="100%"
       height="100%" />
    <use
       x="0"
       y="0"
       inkscape:tiled-clone-of="#g2842"
       xlink:href="#g2842"
       transform="translate(180.00001,99.999993)"
       id="use12475"
       width="100%"
       height="100%" />
    <use
       x="0"
       y="0"
       inkscape:tiled-clone-of="#g2842"
       xlink:href="#g2842"
       transform="translate(180.00001,119.99999)"
       id="use12477"
       width="100%"
       height="100%" />
    <use
       x="0"
       y="0"
       inkscape:tiled-clone-of="#g2842"
       xlink:href="#g2842"
       transform="translate(180.00001,139.99999)"
       id="use12479"
       width="100%"
       height="100%" />
    <use
       x="0"
       y="0"
       inkscape:tiled-clone-of="#g2842"
       xlink:href="#g2842"
       transform="translate(180.00001,159.99999)"
       id="use12481"
       width="100%"
       height="100%" />
    <use
       x="0"
       y="0"
       inkscape:tiled-clone-of="#g2842"
       xlink:href="#g2842"
       transform="translate(180.00001,179.99999)"
       id="use12483"
       width="100%"
       height="100%" />
    <use
       x="0"
       y="0"
       inkscape:tiled-clone-of="#g2842"
       xlink:href="#g2842"
       transform="translate(200.00001)"
       id="use12487"
       width="100%"
       height="100%" />
    <use
       x="0"
       y="0"
       inkscape:tiled-clone-of="#g2842"
       xlink:href="#g2842"
       transform="translate(200.00001,19.999999)"
       id="use12489"
       width="100%"
       height="100%" />
    <use
       x="0"
       y="0"
       inkscape:tiled-clone-of="#g2842"
       xlink:href="#g2842"
       transform="translate(200.00001,39.999997)"
       id="use12491"
       width="100%"
       height="100%" />
    <use
       x="0"
       y="0"
       inkscape:tiled-clone-of="#g2842"
       xlink:href="#g2842"
       transform="translate(200.00001,59.999996)"
       id="use12493"
       width="100%"
       height="100%" />
    <use
       x="0"
       y="0"
       inkscape:tiled-clone-of="#g2842"
       xlink:href="#g2842"
       transform="translate(200.00001,79.999995)"
       id="use12495"
       width="100%"
       height="100%" />
    <use
       x="0"
       y="0"
       inkscape:tiled-clone-of="#g2842"
       xlink:href="#g2842"
       transform="translate(200.00001,99.999993)"
       id="use12497"
       width="100%"
       height="100%" />
    <use
       x="0"
       y="0"
       inkscape:tiled-clone-of="#g2842"
       xlink:href="#g2842"
       transform="translate(200.00001,119.99999)"
       id="use12499"
       width="100%"
       height="100%" />
    <use
       x="0"
       y="0"
       inkscape:tiled-clone-of="#g2842"
       xlink:href="#g2842"
       transform="translate(200.00001,139.99999)"
       id="use12501"
       width="100%"
       height="100%" />
    <use
       x="0"
       y="0"
       inkscape:tiled-clone-of="#g2842"
       xlink:href="#g2842"
       transform="translate(200.00001,159.99999)"
       id="use12503"
       width="100%"
       height="100%" />
    <use
       x="0"
       y="0"
       inkscape:tiled-clone-of="#g2842"
       xlink:href="#g2842"
       transform="translate(200.00001,179.99999)"
       id="use12505"
       width="100%"
       height="100%" />
    <use
       x="0"
       y="0"
       inkscape:tiled-clone-of="#g2842"
       xlink:href="#g2842"
       transform="translate(220.00001)"
       id="use12509"
       width="100%"
       height="100%" />
    <use
       x="0"
       y="0"
       inkscape:tiled-clone-of="#g2842"
       xlink:href="#g2842"
       transform="translate(220.00001,19.999999)"
       id="use12511"
       width="100%"
       height="100%" />
    <use
       x="0"
       y="0"
       inkscape:tiled-clone-of="#g2842"
       xlink:href="#g2842"
       transform="translate(220.00001,39.999997)"
       id="use12513"
       width="100%"
       height="100%" />
    <use
       x="0"
       y="0"
       inkscape:tiled-clone-of="#g2842"
       xlink:href="#g2842"
       transform="translate(220.00001,59.999996)"
       id="use12515"
       width="100%"
       height="100%" />
    <use
       x="0"
       y="0"
       inkscape:tiled-clone-of="#g2842"
       xlink:href="#g2842"
       transform="translate(220.00001,79.999995)"
       id="use12517"
       width="100%"
       height="100%" />
    <use
       x="0"
       y="0"
       inkscape:tiled-clone-of="#g2842"
       xlink:href="#g2842"
       transform="translate(220.00001,99.999993)"
       id="use12519"
       width="100%"
       height="100%" />
    <use
       x="0"
       y="0"
       inkscape:tiled-clone-of="#g2842"
       xlink:href="#g2842"
       transform="translate(220.00001,119.99999)"
       id="use12521"
       width="100%"
       height="100%" />
    <use
       x="0"
       y="0"
       inkscape:tiled-clone-of="#g2842"
       xlink:href="#g2842"
       transform="translate(220.00001,139.99999)"
       id="use12523"
       width="100%"
       height="100%" />
    <use
       x="0"
       y="0"
       inkscape:tiled-clone-of="#g2842"
       xlink:href="#g2842"
       transform="translate(220.00001,159.99999)"
       id="use12525"
       width="100%"
       height="100%" />
    <use
       x="0"
       y="0"
       inkscape:tiled-clone-of="#g2842"
       xlink:href="#g2842"
       transform="translate(220.00001,179.99999)"
       id="use12527"
       width="100%"
       height="100%" />
    <use
       x="0"
       y="0"
       inkscape:tiled-clone-of="#g2842"
       xlink:href="#g2842"
       transform="translate(240.00001)"
       id="use12531"
       width="100%"
       height="100%" />
    <use
       x="0"
       y="0"
       inkscape:tiled-clone-of="#g2842"
       xlink:href="#g2842"
       transform="translate(240.00001,19.999999)"
       id="use12533"
       width="100%"
       height="100%" />
    <use
       x="0"
       y="0"
       inkscape:tiled-clone-of="#g2842"
       xlink:href="#g2842"
       transform="translate(240.00001,39.999997)"
       id="use12535"
       width="100%"
       height="100%" />
    <use
       x="0"
       y="0"
       inkscape:tiled-clone-of="#g2842"
       xlink:href="#g2842"
       transform="translate(240.00001,59.999996)"
       id="use12537"
       width="100%"
       height="100%" />
    <use
       x="0"
       y="0"
       inkscape:tiled-clone-of="#g2842"
       xlink:href="#g2842"
       transform="translate(240.00001,79.999995)"
       id="use12539"
       width="100%"
       height="100%" />
    <use
       x="0"
       y="0"
       inkscape:tiled-clone-of="#g2842"
       xlink:href="#g2842"
       transform="translate(240.00001,99.999993)"
       id="use12541"
       width="100%"
       height="100%" />
    <use
       x="0"
       y="0"
       inkscape:tiled-clone-of="#g2842"
       xlink:href="#g2842"
       transform="translate(240.00001,119.99999)"
       id="use12543"
       width="100%"
       height="100%" />
    <use
       x="0"
       y="0"
       inkscape:tiled-clone-of="#g2842"
       xlink:href="#g2842"
       transform="translate(240.00001,139.99999)"
       id="use12545"
       width="100%"
       height="100%" />
    <use
       x="0"
       y="0"
       inkscape:tiled-clone-of="#g2842"
       xlink:href="#g2842"
       transform="translate(240.00001,159.99999)"
       id="use12547"
       width="100%"
       height="100%" />
    <use
       x="0"
       y="0"
       inkscape:tiled-clone-of="#g2842"
       xlink:href="#g2842"
       transform="translate(240.00001,179.99999)"
       id="use12549"
       width="100%"
       height="100%" />
    <use
       x="0"
       y="0"
       inkscape:tiled-clone-of="#g2842"
       xlink:href="#g2842"
       transform="translate(260.00001)"
       id="use12553"
       width="100%"
       height="100%" />
    <use
       x="0"
       y="0"
       inkscape:tiled-clone-of="#g2842"
       xlink:href="#g2842"
       transform="translate(260.00001,19.999999)"
       id="use12555"
       width="100%"
       height="100%" />
    <use
       x="0"
       y="0"
       inkscape:tiled-clone-of="#g2842"
       xlink:href="#g2842"
       transform="translate(260.00001,39.999997)"
       id="use12557"
       width="100%"
       height="100%" />
    <use
       x="0"
       y="0"
       inkscape:tiled-clone-of="#g2842"
       xlink:href="#g2842"
       transform="translate(260.00001,59.999996)"
       id="use12559"
       width="100%"
       height="100%" />
    <use
       x="0"
       y="0"
       inkscape:tiled-clone-of="#g2842"
       xlink:href="#g2842"
       transform="translate(260.00001,79.999995)"
       id="use12561"
       width="100%"
       height="100%" />
    <use
       x="0"
       y="0"
       inkscape:tiled-clone-of="#g2842"
       xlink:href="#g2842"
       transform="translate(260.00001,99.999993)"
       id="use12563"
       width="100%"
       height="100%" />
    <use
       x="0"
       y="0"
       inkscape:tiled-clone-of="#g2842"
       xlink:href="#g2842"
       transform="translate(260.00001,119.99999)"
       id="use12565"
       width="100%"
       height="100%" />
    <use
       x="0"
       y="0"
       inkscape:tiled-clone-of="#g2842"
       xlink:href="#g2842"
       transform="translate(260.00001,139.99999)"
       id="use12567"
       width="100%"
       height="100%" />
    <use
       x="0"
       y="0"
       inkscape:tiled-clone-of="#g2842"
       xlink:href="#g2842"
       transform="translate(260.00001,159.99999)"
       id="use12569"
       width="100%"
       height="100%" />
    <use
       x="0"
       y="0"
       inkscape:tiled-clone-of="#g2842"
       xlink:href="#g2842"
       transform="translate(260.00001,179.99999)"
       id="use12571"
       width="100%"
       height="100%" />
  </g>
</svg>
